<svg width="1415" height="100" viewBox="0 0 1415 100" fill="none" xmlns="http://www.w3.org/2000/svg">
<rect width="1440" height="100" fill="#F9F1E7"/>
<path d="M144.42 43.06V44.54H138.36V49.24H143.28V50.72H138.36V57H136.54V43.06H144.42ZM147.558 44.26C147.211 44.26 146.918 44.14 146.678 43.9C146.438 43.66 146.318 43.3667 146.318 43.02C146.318 42.6733 146.438 42.38 146.678 42.14C146.918 41.9 147.211 41.78 147.558 41.78C147.891 41.78 148.171 41.9 148.398 42.14C148.638 42.38 148.758 42.6733 148.758 43.02C148.758 43.3667 148.638 43.66 148.398 43.9C148.171 44.14 147.891 44.26 147.558 44.26ZM148.438 46.04V57H146.618V46.04H148.438ZM153.36 42.2V57H151.54V42.2H153.36ZM158.682 47.54V54C158.682 54.5333 158.795 54.9133 159.022 55.14C159.249 55.3533 159.642 55.46 160.202 55.46H161.542V57H159.902C158.889 57 158.129 56.7667 157.622 56.3C157.115 55.8333 156.862 55.0667 156.862 54V47.54H155.442V46.04H156.862V43.28H158.682V46.04H161.542V47.54H158.682ZM173.747 51.1C173.747 51.4467 173.727 51.8133 173.687 52.2H164.927C164.994 53.28 165.36 54.1267 166.027 54.74C166.707 55.34 167.527 55.64 168.487 55.64C169.274 55.64 169.927 55.46 170.447 55.1C170.98 54.7267 171.354 54.2333 171.567 53.62H173.527C173.234 54.6733 172.647 55.5333 171.767 56.2C170.887 56.8533 169.794 57.18 168.487 57.18C167.447 57.18 166.514 56.9467 165.687 56.48C164.874 56.0133 164.234 55.3533 163.767 54.5C163.3 53.6333 163.067 52.6333 163.067 51.5C163.067 50.3667 163.294 49.3733 163.747 48.52C164.2 47.6667 164.834 47.0133 165.647 46.56C166.474 46.0933 167.42 45.86 168.487 45.86C169.527 45.86 170.447 46.0867 171.247 46.54C172.047 46.9933 172.66 47.62 173.087 48.42C173.527 49.2067 173.747 50.1 173.747 51.1ZM171.867 50.72C171.867 50.0267 171.714 49.4333 171.407 48.94C171.1 48.4333 170.68 48.0533 170.147 47.8C169.627 47.5333 169.047 47.4 168.407 47.4C167.487 47.4 166.7 47.6933 166.047 48.28C165.407 48.8667 165.04 49.68 164.947 50.72H171.867ZM177.969 47.82C178.289 47.1933 178.743 46.7067 179.329 46.36C179.929 46.0133 180.656 45.84 181.509 45.84V47.72H181.029C178.989 47.72 177.969 48.8267 177.969 51.04V57H176.149V46.04H177.969V47.82Z" fill="black"/>
<path d="M120.024 44.1429H106.929M104.548 44.1429H100.976M120.024 56.0476H106.929M104.548 56.0476H100.976M114.071 50.0952H100.976M120.024 50.0952H116.452M105.738 41.7619C106.054 41.7619 106.357 41.8873 106.58 42.1106C106.803 42.3338 106.929 42.6366 106.929 42.9524V45.3333C106.929 45.6491 106.803 45.9519 106.58 46.1751C106.357 46.3984 106.054 46.5238 105.738 46.5238C105.422 46.5238 105.12 46.3984 104.896 46.1751C104.673 45.9519 104.548 45.6491 104.548 45.3333V42.9524C104.548 42.6366 104.673 42.3338 104.896 42.1106C105.12 41.8873 105.422 41.7619 105.738 41.7619V41.7619ZM105.738 53.6667C106.054 53.6667 106.357 53.7921 106.58 54.0153C106.803 54.2386 106.929 54.5414 106.929 54.8571V57.2381C106.929 57.5538 106.803 57.8566 106.58 58.0799C106.357 58.3031 106.054 58.4286 105.738 58.4286C105.422 58.4286 105.12 58.3031 104.896 58.0799C104.673 57.8566 104.548 57.5538 104.548 57.2381V54.8571C104.548 54.5414 104.673 54.2386 104.896 54.0153C105.12 53.7921 105.422 53.6667 105.738 53.6667ZM115.262 47.7143C115.578 47.7143 115.88 47.8397 116.104 48.063C116.327 48.2862 116.452 48.589 116.452 48.9048V51.2857C116.452 51.6014 116.327 51.9042 116.104 52.1275C115.88 52.3508 115.578 52.4762 115.262 52.4762C114.946 52.4762 114.643 52.3508 114.42 52.1275C114.197 51.9042 114.071 51.6014 114.071 51.2857V48.9048C114.071 48.589 114.197 48.2862 114.42 48.063C114.643 47.8397 114.946 47.7143 115.262 47.7143V47.7143Z" stroke="black" stroke-linecap="round" stroke-linejoin="round"/>
<path d="M262.5 44.75H277.5C278.296 44.75 279.059 45.0661 279.621 45.6287C280.184 46.1913 280.5 46.9544 280.5 47.75V52.25C280.5 53.0456 280.184 53.8087 279.621 54.3713C279.059 54.9339 278.296 55.25 277.5 55.25H262.5C261.704 55.25 260.941 54.9339 260.379 54.3713C259.816 53.8087 259.5 53.0456 259.5 52.25V47.75C259.5 46.9544 259.816 46.1913 260.379 45.6287C260.941 45.0661 261.704 44.75 262.5 44.75ZM262.5 46.25C262.102 46.25 261.721 46.408 261.439 46.6893C261.158 46.9706 261 47.3522 261 47.75V52.25C261 52.6478 261.158 53.0294 261.439 53.3107C261.721 53.592 262.102 53.75 262.5 53.75H277.5C277.898 53.75 278.279 53.592 278.561 53.3107C278.842 53.0294 279 52.6478 279 52.25V47.75C279 47.3522 278.842 46.9706 278.561 46.6893C278.279 46.408 277.898 46.25 277.5 46.25H262.5ZM259.5 41C259.5 40.8011 259.579 40.6103 259.72 40.4697C259.86 40.329 260.051 40.25 260.25 40.25H279.75C279.949 40.25 280.14 40.329 280.28 40.4697C280.421 40.6103 280.5 40.8011 280.5 41C280.5 41.1989 280.421 41.3897 280.28 41.5303C280.14 41.671 279.949 41.75 279.75 41.75H260.25C260.051 41.75 259.86 41.671 259.72 41.5303C259.579 41.3897 259.5 41.1989 259.5 41ZM259.5 59C259.5 58.8011 259.579 58.6103 259.72 58.4697C259.86 58.329 260.051 58.25 260.25 58.25H279.75C279.949 58.25 280.14 58.329 280.28 58.4697C280.421 58.6103 280.5 58.8011 280.5 59C280.5 59.1989 280.421 59.3897 280.28 59.5303C280.14 59.671 279.949 59.75 279.75 59.75H260.25C260.051 59.75 259.86 59.671 259.72 59.5303C259.579 59.3897 259.5 59.1989 259.5 59Z" fill="black"/>
<path d="M224.667 58.1667C223.738 58.1667 222.848 57.7979 222.192 57.1415C221.535 56.4852 221.167 55.5949 221.167 54.6667C221.167 53.7384 221.535 52.8482 222.192 52.1918C222.848 51.5354 223.738 51.1667 224.667 51.1667C225.595 51.1667 226.485 51.5354 227.142 52.1918C227.798 52.8482 228.167 53.7384 228.167 54.6667C228.167 55.5949 227.798 56.4852 227.142 57.1415C226.485 57.7979 225.595 58.1667 224.667 58.1667ZM215.333 58.1667C214.405 58.1667 213.515 57.7979 212.858 57.1415C212.202 56.4852 211.833 55.5949 211.833 54.6667C211.833 53.7384 212.202 52.8482 212.858 52.1918C213.515 51.5354 214.405 51.1667 215.333 51.1667C216.262 51.1667 217.152 51.5354 217.808 52.1918C218.465 52.8482 218.833 53.7384 218.833 54.6667C218.833 55.5949 218.465 56.4852 217.808 57.1415C217.152 57.7979 216.262 58.1667 215.333 58.1667ZM224.667 48.8333C223.738 48.8333 222.848 48.4646 222.192 47.8082C221.535 47.1518 221.167 46.2616 221.167 45.3333C221.167 44.4051 221.535 43.5148 222.192 42.8585C222.848 42.2021 223.738 41.8333 224.667 41.8333C225.595 41.8333 226.485 42.2021 227.142 42.8585C227.798 43.5148 228.167 44.4051 228.167 45.3333C228.167 46.2616 227.798 47.1518 227.142 47.8082C226.485 48.4646 225.595 48.8333 224.667 48.8333ZM215.333 48.8333C214.405 48.8333 213.515 48.4646 212.858 47.8082C212.202 47.1518 211.833 46.2616 211.833 45.3333C211.833 44.4051 212.202 43.5148 212.858 42.8585C213.515 42.2021 214.405 41.8333 215.333 41.8333C216.262 41.8333 217.152 42.2021 217.808 42.8585C218.465 43.5148 218.833 44.4051 218.833 45.3333C218.833 46.2616 218.465 47.1518 217.808 47.8082C217.152 48.4646 216.262 48.8333 215.333 48.8333Z" fill="black"/>
<line x1="313" y1="31" x2="313" y2="68" stroke="#9F9F9F" stroke-width="2"/>
<path d="M350.768 56.112C350.032 56.112 349.371 55.984 348.784 55.728C348.208 55.4613 347.755 55.0987 347.424 54.64C347.093 54.1707 346.923 53.632 346.912 53.024H348.464C348.517 53.5467 348.731 53.9893 349.104 54.352C349.488 54.704 350.043 54.88 350.768 54.88C351.461 54.88 352.005 54.7093 352.4 54.368C352.805 54.016 353.008 53.568 353.008 53.024C353.008 52.5973 352.891 52.2507 352.656 51.984C352.421 51.7173 352.128 51.5147 351.776 51.376C351.424 51.2373 350.949 51.088 350.352 50.928C349.616 50.736 349.024 50.544 348.576 50.352C348.139 50.16 347.76 49.8613 347.44 49.456C347.131 49.04 346.976 48.4853 346.976 47.792C346.976 47.184 347.131 46.6453 347.44 46.176C347.749 45.7067 348.181 45.344 348.736 45.088C349.301 44.832 349.947 44.704 350.672 44.704C351.717 44.704 352.571 44.9653 353.232 45.488C353.904 46.0107 354.283 46.704 354.368 47.568H352.768C352.715 47.1413 352.491 46.768 352.096 46.448C351.701 46.1173 351.179 45.952 350.528 45.952C349.92 45.952 349.424 46.112 349.04 46.432C348.656 46.7413 348.464 47.1787 348.464 47.744C348.464 48.1493 348.576 48.48 348.8 48.736C349.035 48.992 349.317 49.1893 349.648 49.328C349.989 49.456 350.464 49.6053 351.072 49.776C351.808 49.9787 352.4 50.1813 352.848 50.384C353.296 50.576 353.68 50.88 354 51.296C354.32 51.7013 354.48 52.256 354.48 52.96C354.48 53.504 354.336 54.016 354.048 54.496C353.76 54.976 353.333 55.3653 352.768 55.664C352.203 55.9627 351.536 56.112 350.768 56.112ZM360.975 47.072C361.636 47.072 362.233 47.216 362.767 47.504C363.3 47.7813 363.716 48.2027 364.015 48.768C364.324 49.3333 364.479 50.0213 364.479 50.832V56H363.039V51.04C363.039 50.1653 362.82 49.4987 362.383 49.04C361.945 48.5707 361.348 48.336 360.591 48.336C359.823 48.336 359.209 48.576 358.751 49.056C358.303 49.536 358.079 50.2347 358.079 51.152V56H356.623V44.16H358.079V48.48C358.367 48.032 358.761 47.6853 359.263 47.44C359.775 47.1947 360.345 47.072 360.975 47.072ZM370.681 56.144C369.86 56.144 369.113 55.9573 368.441 55.584C367.78 55.2107 367.257 54.6827 366.873 54C366.5 53.3067 366.313 52.5067 366.313 51.6C366.313 50.704 366.505 49.9147 366.889 49.232C367.284 48.5387 367.817 48.0107 368.489 47.648C369.161 47.2747 369.913 47.088 370.745 47.088C371.577 47.088 372.329 47.2747 373.001 47.648C373.673 48.0107 374.201 48.5333 374.585 49.216C374.98 49.8987 375.177 50.6933 375.177 51.6C375.177 52.5067 374.974 53.3067 374.569 54C374.174 54.6827 373.636 55.2107 372.953 55.584C372.27 55.9573 371.513 56.144 370.681 56.144ZM370.681 54.864C371.204 54.864 371.694 54.7413 372.153 54.496C372.612 54.2507 372.98 53.8827 373.257 53.392C373.545 52.9013 373.689 52.304 373.689 51.6C373.689 50.896 373.55 50.2987 373.273 49.808C372.996 49.3173 372.633 48.9547 372.185 48.72C371.737 48.4747 371.252 48.352 370.729 48.352C370.196 48.352 369.705 48.4747 369.257 48.72C368.82 48.9547 368.468 49.3173 368.201 49.808C367.934 50.2987 367.801 50.896 367.801 51.6C367.801 52.3147 367.929 52.9173 368.185 53.408C368.452 53.8987 368.804 54.2667 369.241 54.512C369.678 54.7467 370.158 54.864 370.681 54.864ZM388.771 47.232L386.035 56H384.531L382.419 49.04L380.307 56H378.803L376.051 47.232H377.539L379.555 54.592L381.731 47.232H383.219L385.347 54.608L387.331 47.232H388.771ZM390.968 45.808C390.691 45.808 390.456 45.712 390.264 45.52C390.072 45.328 389.976 45.0933 389.976 44.816C389.976 44.5387 390.072 44.304 390.264 44.112C390.456 43.92 390.691 43.824 390.968 43.824C391.235 43.824 391.459 43.92 391.64 44.112C391.832 44.304 391.928 44.5387 391.928 44.816C391.928 45.0933 391.832 45.328 391.64 45.52C391.459 45.712 391.235 45.808 390.968 45.808ZM391.672 47.232V56H390.216V47.232H391.672ZM398.426 47.072C399.493 47.072 400.357 47.3973 401.018 48.048C401.679 48.688 402.01 49.616 402.01 50.832V56H400.57V51.04C400.57 50.1653 400.351 49.4987 399.914 49.04C399.477 48.5707 398.879 48.336 398.122 48.336C397.354 48.336 396.741 48.576 396.282 49.056C395.834 49.536 395.61 50.2347 395.61 51.152V56H394.154V47.232H395.61V48.48C395.898 48.032 396.287 47.6853 396.778 47.44C397.279 47.1947 397.829 47.072 398.426 47.072ZM408.004 47.088C408.762 47.088 409.423 47.2533 409.988 47.584C410.564 47.9147 410.991 48.3307 411.268 48.832V47.232H412.74V56.192C412.74 56.992 412.57 57.7013 412.228 58.32C411.887 58.9493 411.396 59.44 410.756 59.792C410.127 60.144 409.391 60.32 408.548 60.32C407.396 60.32 406.436 60.048 405.668 59.504C404.9 58.96 404.447 58.2187 404.308 57.28H405.748C405.908 57.8133 406.239 58.24 406.74 58.56C407.242 58.8907 407.844 59.056 408.548 59.056C409.348 59.056 409.999 58.8053 410.5 58.304C411.012 57.8027 411.268 57.0987 411.268 56.192V54.352C410.98 54.864 410.554 55.2907 409.988 55.632C409.423 55.9733 408.762 56.144 408.004 56.144C407.226 56.144 406.516 55.952 405.876 55.568C405.247 55.184 404.751 54.6453 404.388 53.952C404.026 53.2587 403.844 52.4693 403.844 51.584C403.844 50.688 404.026 49.904 404.388 49.232C404.751 48.5493 405.247 48.0213 405.876 47.648C406.516 47.2747 407.226 47.088 408.004 47.088ZM411.268 51.6C411.268 50.9387 411.135 50.3627 410.868 49.872C410.602 49.3813 410.239 49.008 409.78 48.752C409.332 48.4853 408.836 48.352 408.292 48.352C407.748 48.352 407.252 48.48 406.804 48.736C406.356 48.992 405.999 49.3653 405.732 49.856C405.466 50.3467 405.332 50.9227 405.332 51.584C405.332 52.256 405.466 52.8427 405.732 53.344C405.999 53.8347 406.356 54.2133 406.804 54.48C407.252 54.736 407.748 54.864 408.292 54.864C408.836 54.864 409.332 54.736 409.78 54.48C410.239 54.2133 410.602 53.8347 410.868 53.344C411.135 52.8427 411.268 52.2613 411.268 51.6ZM418.842 45.76V44.432H421.85V56H420.378V45.76H418.842ZM432.991 49.52V50.752H424.575V49.52H432.991ZM434.796 45.76V44.432H437.804V56H436.332V45.76H434.796ZM446.753 47.184C446.518 46 445.787 45.408 444.561 45.408C443.611 45.408 442.902 45.776 442.433 46.512C441.963 47.2373 441.734 48.4373 441.745 50.112C441.99 49.5573 442.395 49.1253 442.961 48.816C443.537 48.496 444.177 48.336 444.881 48.336C445.979 48.336 446.854 48.6773 447.505 49.36C448.166 50.0427 448.497 50.9867 448.497 52.192C448.497 52.9173 448.353 53.568 448.065 54.144C447.787 54.72 447.361 55.1787 446.785 55.52C446.219 55.8613 445.531 56.032 444.721 56.032C443.622 56.032 442.763 55.7867 442.145 55.296C441.526 54.8053 441.094 54.128 440.849 53.264C440.603 52.4 440.481 51.3333 440.481 50.064C440.481 46.1493 441.846 44.192 444.577 44.192C445.622 44.192 446.443 44.4747 447.041 45.04C447.638 45.6053 447.99 46.32 448.097 47.184H446.753ZM444.577 49.568C444.118 49.568 443.686 49.664 443.281 49.856C442.875 50.0373 442.545 50.32 442.289 50.704C442.043 51.0773 441.921 51.536 441.921 52.08C441.921 52.8907 442.155 53.552 442.625 54.064C443.094 54.5653 443.766 54.816 444.641 54.816C445.387 54.816 445.979 54.5867 446.417 54.128C446.865 53.6587 447.089 53.0293 447.089 52.24C447.089 51.408 446.875 50.7573 446.449 50.288C446.022 49.808 445.398 49.568 444.577 49.568ZM458.79 56.144C457.969 56.144 457.222 55.9573 456.55 55.584C455.889 55.2107 455.366 54.6827 454.982 54C454.609 53.3067 454.422 52.5067 454.422 51.6C454.422 50.704 454.614 49.9147 454.998 49.232C455.393 48.5387 455.926 48.0107 456.598 47.648C457.27 47.2747 458.022 47.088 458.854 47.088C459.686 47.088 460.438 47.2747 461.11 47.648C461.782 48.0107 462.31 48.5333 462.694 49.216C463.089 49.8987 463.286 50.6933 463.286 51.6C463.286 52.5067 463.084 53.3067 462.678 54C462.284 54.6827 461.745 55.2107 461.062 55.584C460.38 55.9573 459.622 56.144 458.79 56.144ZM458.79 54.864C459.313 54.864 459.804 54.7413 460.262 54.496C460.721 54.2507 461.089 53.8827 461.366 53.392C461.654 52.9013 461.798 52.304 461.798 51.6C461.798 50.896 461.66 50.2987 461.382 49.808C461.105 49.3173 460.742 48.9547 460.294 48.72C459.846 48.4747 459.361 48.352 458.838 48.352C458.305 48.352 457.814 48.4747 457.366 48.72C456.929 48.9547 456.577 49.3173 456.31 49.808C456.044 50.2987 455.91 50.896 455.91 51.6C455.91 52.3147 456.038 52.9173 456.294 53.408C456.561 53.8987 456.913 54.2667 457.35 54.512C457.788 54.7467 458.268 54.864 458.79 54.864ZM468.769 48.432H466.929V56H465.473V48.432H464.337V47.232H465.473V46.608C465.473 45.6267 465.723 44.912 466.225 44.464C466.737 44.0053 467.553 43.776 468.673 43.776V44.992C468.033 44.992 467.579 45.12 467.313 45.376C467.057 45.6213 466.929 46.032 466.929 46.608V47.232H468.769V48.432ZM474.46 47.344C474.535 46.3627 474.913 45.5947 475.596 45.04C476.279 44.4853 477.164 44.208 478.252 44.208C478.977 44.208 479.601 44.3413 480.124 44.608C480.657 44.864 481.057 45.216 481.324 45.664C481.601 46.112 481.74 46.6187 481.74 47.184C481.74 47.8453 481.548 48.416 481.164 48.896C480.791 49.376 480.3 49.6853 479.692 49.824V49.904C480.385 50.0747 480.935 50.4107 481.34 50.912C481.745 51.4133 481.948 52.0693 481.948 52.88C481.948 53.488 481.809 54.0373 481.532 54.528C481.255 55.008 480.839 55.3867 480.284 55.664C479.729 55.9413 479.063 56.08 478.284 56.08C477.153 56.08 476.225 55.7867 475.5 55.2C474.775 54.6027 474.369 53.76 474.284 52.672H475.692C475.767 53.312 476.028 53.8347 476.476 54.24C476.924 54.6453 477.521 54.848 478.268 54.848C479.015 54.848 479.58 54.656 479.964 54.272C480.359 53.8773 480.556 53.3707 480.556 52.752C480.556 51.952 480.289 51.376 479.756 51.024C479.223 50.672 478.417 50.496 477.34 50.496H476.972V49.28H477.356C478.337 49.2693 479.079 49.1093 479.58 48.8C480.081 48.48 480.332 47.9893 480.332 47.328C480.332 46.7627 480.145 46.3093 479.772 45.968C479.409 45.6267 478.887 45.456 478.204 45.456C477.543 45.456 477.009 45.6267 476.604 45.968C476.199 46.3093 475.959 46.768 475.884 47.344H474.46ZM483.738 54.832C485.093 53.744 486.154 52.8533 486.922 52.16C487.69 51.456 488.335 50.7253 488.858 49.968C489.391 49.2 489.658 48.448 489.658 47.712C489.658 47.0187 489.487 46.4747 489.146 46.08C488.815 45.6747 488.277 45.472 487.53 45.472C486.805 45.472 486.239 45.7013 485.834 46.16C485.439 46.608 485.226 47.2107 485.194 47.968H483.786C483.829 46.7733 484.191 45.8507 484.874 45.2C485.557 44.5493 486.437 44.224 487.514 44.224C488.613 44.224 489.482 44.528 490.122 45.136C490.773 45.744 491.098 46.5813 491.098 47.648C491.098 48.5333 490.831 49.3973 490.298 50.24C489.775 51.072 489.178 51.808 488.506 52.448C487.834 53.0773 486.975 53.8133 485.93 54.656H491.434V55.872H483.738V54.832ZM499.079 48.656C499.335 48.1547 499.697 47.7653 500.167 47.488C500.647 47.2107 501.228 47.072 501.911 47.072V48.576H501.527C499.895 48.576 499.079 49.4613 499.079 51.232V56H497.623V47.232H499.079V48.656ZM511.591 51.28C511.591 51.5573 511.575 51.8507 511.543 52.16H504.535C504.589 53.024 504.882 53.7013 505.415 54.192C505.959 54.672 506.615 54.912 507.383 54.912C508.013 54.912 508.535 54.768 508.951 54.48C509.378 54.1813 509.677 53.7867 509.847 53.296H511.415C511.181 54.1387 510.711 54.8267 510.007 55.36C509.303 55.8827 508.429 56.144 507.383 56.144C506.551 56.144 505.805 55.9573 505.143 55.584C504.493 55.2107 503.981 54.6827 503.607 54C503.234 53.3067 503.047 52.5067 503.047 51.6C503.047 50.6933 503.229 49.8987 503.591 49.216C503.954 48.5333 504.461 48.0107 505.111 47.648C505.773 47.2747 506.53 47.088 507.383 47.088C508.215 47.088 508.951 47.2693 509.591 47.632C510.231 47.9947 510.722 48.496 511.063 49.136C511.415 49.7653 511.591 50.48 511.591 51.28ZM510.087 50.976C510.087 50.4213 509.965 49.9467 509.719 49.552C509.474 49.1467 509.138 48.8427 508.711 48.64C508.295 48.4267 507.831 48.32 507.319 48.32C506.583 48.32 505.954 48.5547 505.431 49.024C504.919 49.4933 504.626 50.144 504.551 50.976H510.087ZM516.617 56.144C515.945 56.144 515.343 56.032 514.809 55.808C514.276 55.5733 513.855 55.2533 513.545 54.848C513.236 54.432 513.065 53.9573 513.033 53.424H514.537C514.58 53.8613 514.783 54.2187 515.145 54.496C515.519 54.7733 516.004 54.912 516.601 54.912C517.156 54.912 517.593 54.7893 517.913 54.544C518.233 54.2987 518.393 53.9893 518.393 53.616C518.393 53.232 518.223 52.9493 517.881 52.768C517.54 52.576 517.012 52.3893 516.297 52.208C515.647 52.0373 515.113 51.8667 514.697 51.696C514.292 51.5147 513.94 51.2533 513.641 50.912C513.353 50.56 513.209 50.1013 513.209 49.536C513.209 49.088 513.343 48.6773 513.609 48.304C513.876 47.9307 514.255 47.6373 514.745 47.424C515.236 47.2 515.796 47.088 516.425 47.088C517.396 47.088 518.18 47.3333 518.777 47.824C519.375 48.3147 519.695 48.9867 519.737 49.84H518.281C518.249 49.3813 518.063 49.0133 517.721 48.736C517.391 48.4587 516.943 48.32 516.377 48.32C515.855 48.32 515.439 48.432 515.129 48.656C514.82 48.88 514.665 49.1733 514.665 49.536C514.665 49.824 514.756 50.064 514.937 50.256C515.129 50.4373 515.364 50.5867 515.641 50.704C515.929 50.8107 516.324 50.9333 516.825 51.072C517.455 51.2427 517.967 51.4133 518.361 51.584C518.756 51.744 519.092 51.9893 519.369 52.32C519.657 52.6507 519.807 53.0827 519.817 53.616C519.817 54.096 519.684 54.528 519.417 54.912C519.151 55.296 518.772 55.6 518.281 55.824C517.801 56.0373 517.247 56.144 516.617 56.144ZM529.649 47.232V56H528.193V54.704C527.915 55.152 527.526 55.504 527.025 55.76C526.534 56.0053 525.99 56.128 525.393 56.128C524.71 56.128 524.097 55.9893 523.553 55.712C523.009 55.424 522.577 54.9973 522.257 54.432C521.947 53.8667 521.793 53.1787 521.793 52.368V47.232H523.233V52.176C523.233 53.04 523.451 53.7067 523.889 54.176C524.326 54.6347 524.923 54.864 525.681 54.864C526.459 54.864 527.073 54.624 527.521 54.144C527.969 53.664 528.193 52.9653 528.193 52.048V47.232H529.649ZM533.563 44.16V56H532.107V44.16H533.563ZM537.821 48.432V53.6C537.821 54.0267 537.911 54.3307 538.093 54.512C538.274 54.6827 538.589 54.768 539.036 54.768H540.109V56H538.797C537.986 56 537.378 55.8133 536.973 55.44C536.567 55.0667 536.365 54.4533 536.365 53.6V48.432H535.229V47.232H536.365V45.024H537.821V47.232H540.109V48.432H537.821ZM544.977 56.144C544.305 56.144 543.702 56.032 543.169 55.808C542.635 55.5733 542.214 55.2533 541.905 54.848C541.595 54.432 541.425 53.9573 541.393 53.424H542.897C542.939 53.8613 543.142 54.2187 543.505 54.496C543.878 54.7733 544.363 54.912 544.961 54.912C545.515 54.912 545.953 54.7893 546.273 54.544C546.593 54.2987 546.753 53.9893 546.753 53.616C546.753 53.232 546.582 52.9493 546.241 52.768C545.899 52.576 545.371 52.3893 544.657 52.208C544.006 52.0373 543.473 51.8667 543.057 51.696C542.651 51.5147 542.299 51.2533 542.001 50.912C541.713 50.56 541.569 50.1013 541.569 49.536C541.569 49.088 541.702 48.6773 541.969 48.304C542.235 47.9307 542.614 47.6373 543.105 47.424C543.595 47.2 544.155 47.088 544.785 47.088C545.755 47.088 546.539 47.3333 547.137 47.824C547.734 48.3147 548.054 48.9867 548.097 49.84H546.641C546.609 49.3813 546.422 49.0133 546.081 48.736C545.75 48.4587 545.302 48.32 544.737 48.32C544.214 48.32 543.798 48.432 543.489 48.656C543.179 48.88 543.025 49.1733 543.025 49.536C543.025 49.824 543.115 50.064 543.297 50.256C543.489 50.4373 543.723 50.5867 544.001 50.704C544.289 50.8107 544.683 50.9333 545.185 51.072C545.814 51.2427 546.326 51.4133 546.721 51.584C547.115 51.744 547.451 51.9893 547.729 52.32C548.017 52.6507 548.166 53.0827 548.177 53.616C548.177 54.096 548.043 54.528 547.777 54.912C547.51 55.296 547.131 55.6 546.641 55.824C546.161 56.0373 545.606 56.144 544.977 56.144Z" fill="black"/>
<path d="M902.96 56.14C902.04 56.14 901.213 55.98 900.48 55.66C899.76 55.3267 899.193 54.8733 898.78 54.3C898.367 53.7133 898.153 53.04 898.14 52.28H900.08C900.147 52.9333 900.413 53.4867 900.88 53.94C901.36 54.38 902.053 54.6 902.96 54.6C903.827 54.6 904.507 54.3867 905 53.96C905.507 53.52 905.76 52.96 905.76 52.28C905.76 51.7467 905.613 51.3133 905.32 50.98C905.027 50.6467 904.66 50.3933 904.22 50.22C903.78 50.0467 903.187 49.86 902.44 49.66C901.52 49.42 900.78 49.18 900.22 48.94C899.673 48.7 899.2 48.3267 898.8 47.82C898.413 47.3 898.22 46.6067 898.22 45.74C898.22 44.98 898.413 44.3067 898.8 43.72C899.187 43.1333 899.727 42.68 900.42 42.36C901.127 42.04 901.933 41.88 902.84 41.88C904.147 41.88 905.213 42.2067 906.04 42.86C906.88 43.5133 907.353 44.38 907.46 45.46H905.46C905.393 44.9267 905.113 44.46 904.62 44.06C904.127 43.6467 903.473 43.44 902.66 43.44C901.9 43.44 901.28 43.64 900.8 44.04C900.32 44.4267 900.08 44.9733 900.08 45.68C900.08 46.1867 900.22 46.6 900.5 46.92C900.793 47.24 901.147 47.4867 901.56 47.66C901.987 47.82 902.58 48.0067 903.34 48.22C904.26 48.4733 905 48.7267 905.56 48.98C906.12 49.22 906.6 49.6 907 50.12C907.4 50.6267 907.6 51.32 907.6 52.2C907.6 52.88 907.42 53.52 907.06 54.12C906.7 54.72 906.167 55.2067 905.46 55.58C904.753 55.9533 903.92 56.14 902.96 56.14ZM915.718 44.84C916.545 44.84 917.292 45.02 917.958 45.38C918.625 45.7267 919.145 46.2533 919.518 46.96C919.905 47.6667 920.098 48.5267 920.098 49.54V56H918.298V49.8C918.298 48.7067 918.025 47.8733 917.478 47.3C916.932 46.7133 916.185 46.42 915.238 46.42C914.278 46.42 913.512 46.72 912.938 47.32C912.378 47.92 912.098 48.7933 912.098 49.94V56H910.278V41.2H912.098V46.6C912.458 46.04 912.952 45.6067 913.578 45.3C914.218 44.9933 914.932 44.84 915.718 44.84ZM927.851 56.18C926.825 56.18 925.891 55.9467 925.051 55.48C924.225 55.0133 923.571 54.3533 923.091 53.5C922.625 52.6333 922.391 51.6333 922.391 50.5C922.391 49.38 922.631 48.3933 923.111 47.54C923.605 46.6733 924.271 46.0133 925.111 45.56C925.951 45.0933 926.891 44.86 927.931 44.86C928.971 44.86 929.911 45.0933 930.751 45.56C931.591 46.0133 932.251 46.6667 932.731 47.52C933.225 48.3733 933.471 49.3667 933.471 50.5C933.471 51.6333 933.218 52.6333 932.711 53.5C932.218 54.3533 931.545 55.0133 930.691 55.48C929.838 55.9467 928.891 56.18 927.851 56.18ZM927.851 54.58C928.505 54.58 929.118 54.4267 929.691 54.12C930.265 53.8133 930.725 53.3533 931.071 52.74C931.431 52.1267 931.611 51.38 931.611 50.5C931.611 49.62 931.438 48.8733 931.091 48.26C930.745 47.6467 930.291 47.1933 929.731 46.9C929.171 46.5933 928.565 46.44 927.911 46.44C927.245 46.44 926.631 46.5933 926.071 46.9C925.525 47.1933 925.085 47.6467 924.751 48.26C924.418 48.8733 924.251 49.62 924.251 50.5C924.251 51.3933 924.411 52.1467 924.731 52.76C925.065 53.3733 925.505 53.8333 926.051 54.14C926.598 54.4333 927.198 54.58 927.851 54.58ZM950.464 45.04L947.044 56H945.164L942.524 47.3L939.884 56H938.004L934.564 45.04H936.424L938.944 54.24L941.664 45.04H943.524L946.184 54.26L948.664 45.04H950.464Z" fill="black"/>
<rect x="968" y="22" width="55" height="55" fill="white"/>
<path d="M986.76 43.2V41.54H990.52V56H988.68V43.2H986.76ZM1001.71 44.98C1001.41 43.5 1000.5 42.76 998.966 42.76C997.78 42.76 996.893 43.22 996.306 44.14C995.72 45.0467 995.433 46.5467 995.446 48.64C995.753 47.9467 996.26 47.4067 996.966 47.02C997.686 46.62 998.486 46.42 999.366 46.42C1000.74 46.42 1001.83 46.8467 1002.65 47.7C1003.47 48.5533 1003.89 49.7333 1003.89 51.24C1003.89 52.1467 1003.71 52.96 1003.35 53.68C1003 54.4 1002.47 54.9733 1001.75 55.4C1001.04 55.8267 1000.18 56.04 999.166 56.04C997.793 56.04 996.72 55.7333 995.946 55.12C995.173 54.5067 994.633 53.66 994.326 52.58C994.02 51.5 993.866 50.1667 993.866 48.58C993.866 43.6867 995.573 41.24 998.986 41.24C1000.29 41.24 1001.32 41.5933 1002.07 42.3C1002.81 43.0067 1003.25 43.9 1003.39 44.98H1001.71ZM998.986 47.96C998.413 47.96 997.873 48.08 997.366 48.32C996.86 48.5467 996.446 48.9 996.126 49.38C995.82 49.8467 995.666 50.42 995.666 51.1C995.666 52.1133 995.96 52.94 996.546 53.58C997.133 54.2067 997.973 54.52 999.066 54.52C1000 54.52 1000.74 54.2333 1001.29 53.66C1001.85 53.0733 1002.13 52.2867 1002.13 51.3C1002.13 50.26 1001.86 49.4467 1001.33 48.86C1000.79 48.26 1000.01 47.96 998.986 47.96Z" fill="#9F9F9F"/>
<path d="M1057.96 56.14C1057.04 56.14 1056.21 55.98 1055.48 55.66C1054.76 55.3267 1054.19 54.8733 1053.78 54.3C1053.37 53.7133 1053.15 53.04 1053.14 52.28H1055.08C1055.15 52.9333 1055.41 53.4867 1055.88 53.94C1056.36 54.38 1057.05 54.6 1057.96 54.6C1058.83 54.6 1059.51 54.3867 1060 53.96C1060.51 53.52 1060.76 52.96 1060.76 52.28C1060.76 51.7467 1060.61 51.3133 1060.32 50.98C1060.03 50.6467 1059.66 50.3933 1059.22 50.22C1058.78 50.0467 1058.19 49.86 1057.44 49.66C1056.52 49.42 1055.78 49.18 1055.22 48.94C1054.67 48.7 1054.2 48.3267 1053.8 47.82C1053.41 47.3 1053.22 46.6067 1053.22 45.74C1053.22 44.98 1053.41 44.3067 1053.8 43.72C1054.19 43.1333 1054.73 42.68 1055.42 42.36C1056.13 42.04 1056.93 41.88 1057.84 41.88C1059.15 41.88 1060.21 42.2067 1061.04 42.86C1061.88 43.5133 1062.35 44.38 1062.46 45.46H1060.46C1060.39 44.9267 1060.11 44.46 1059.62 44.06C1059.13 43.6467 1058.47 43.44 1057.66 43.44C1056.9 43.44 1056.28 43.64 1055.8 44.04C1055.32 44.4267 1055.08 44.9733 1055.08 45.68C1055.08 46.1867 1055.22 46.6 1055.5 46.92C1055.79 47.24 1056.15 47.4867 1056.56 47.66C1056.99 47.82 1057.58 48.0067 1058.34 48.22C1059.26 48.4733 1060 48.7267 1060.56 48.98C1061.12 49.22 1061.6 49.6 1062 50.12C1062.4 50.6267 1062.6 51.32 1062.6 52.2C1062.6 52.88 1062.42 53.52 1062.06 54.12C1061.7 54.72 1061.17 55.2067 1060.46 55.58C1059.75 55.9533 1058.92 56.14 1057.96 56.14ZM1070.72 44.84C1071.54 44.84 1072.29 45.02 1072.96 45.38C1073.62 45.7267 1074.14 46.2533 1074.52 46.96C1074.9 47.6667 1075.1 48.5267 1075.1 49.54V56H1073.3V49.8C1073.3 48.7067 1073.02 47.8733 1072.48 47.3C1071.93 46.7133 1071.18 46.42 1070.24 46.42C1069.28 46.42 1068.51 46.72 1067.94 47.32C1067.38 47.92 1067.1 48.7933 1067.1 49.94V56H1065.28V41.2H1067.1V46.6C1067.46 46.04 1067.95 45.6067 1068.58 45.3C1069.22 44.9933 1069.93 44.84 1070.72 44.84ZM1082.85 56.18C1081.82 56.18 1080.89 55.9467 1080.05 55.48C1079.22 55.0133 1078.57 54.3533 1078.09 53.5C1077.62 52.6333 1077.39 51.6333 1077.39 50.5C1077.39 49.38 1077.63 48.3933 1078.11 47.54C1078.6 46.6733 1079.27 46.0133 1080.11 45.56C1080.95 45.0933 1081.89 44.86 1082.93 44.86C1083.97 44.86 1084.91 45.0933 1085.75 45.56C1086.59 46.0133 1087.25 46.6667 1087.73 47.52C1088.22 48.3733 1088.47 49.3667 1088.47 50.5C1088.47 51.6333 1088.22 52.6333 1087.71 53.5C1087.22 54.3533 1086.54 55.0133 1085.69 55.48C1084.84 55.9467 1083.89 56.18 1082.85 56.18ZM1082.85 54.58C1083.5 54.58 1084.12 54.4267 1084.69 54.12C1085.26 53.8133 1085.72 53.3533 1086.07 52.74C1086.43 52.1267 1086.61 51.38 1086.61 50.5C1086.61 49.62 1086.44 48.8733 1086.09 48.26C1085.74 47.6467 1085.29 47.1933 1084.73 46.9C1084.17 46.5933 1083.56 46.44 1082.91 46.44C1082.24 46.44 1081.63 46.5933 1081.07 46.9C1080.52 47.1933 1080.08 47.6467 1079.75 48.26C1079.42 48.8733 1079.25 49.62 1079.25 50.5C1079.25 51.3933 1079.41 52.1467 1079.73 52.76C1080.06 53.3733 1080.5 53.8333 1081.05 54.14C1081.6 54.4333 1082.2 54.58 1082.85 54.58ZM1092.68 46.82C1093 46.1933 1093.46 45.7067 1094.04 45.36C1094.64 45.0133 1095.37 44.84 1096.22 44.84V46.72H1095.74C1093.7 46.72 1092.68 47.8267 1092.68 50.04V56H1090.86V45.04H1092.68V46.82ZM1100.55 46.54V53C1100.55 53.5333 1100.66 53.9133 1100.89 54.14C1101.11 54.3533 1101.51 54.46 1102.07 54.46H1103.41V56H1101.77C1100.75 56 1099.99 55.7667 1099.49 55.3C1098.98 54.8333 1098.73 54.0667 1098.73 53V46.54H1097.31V45.04H1098.73V42.28H1100.55V45.04H1103.41V46.54H1100.55ZM1112.76 47.08C1113.14 46.4267 1113.68 45.8933 1114.4 45.48C1115.12 45.0667 1115.94 44.86 1116.86 44.86C1117.85 44.86 1118.74 45.0933 1119.52 45.56C1120.31 46.0267 1120.93 46.6867 1121.38 47.54C1121.84 48.38 1122.06 49.36 1122.06 50.48C1122.06 51.5867 1121.84 52.5733 1121.38 53.44C1120.93 54.3067 1120.3 54.98 1119.5 55.46C1118.72 55.94 1117.84 56.18 1116.86 56.18C1115.92 56.18 1115.08 55.9733 1114.36 55.56C1113.66 55.1467 1113.12 54.62 1112.76 53.98V56H1110.94V41.2H1112.76V47.08ZM1120.2 50.48C1120.2 49.6533 1120.04 48.9333 1119.7 48.32C1119.37 47.7067 1118.92 47.24 1118.34 46.92C1117.78 46.6 1117.16 46.44 1116.48 46.44C1115.82 46.44 1115.2 46.6067 1114.62 46.94C1114.06 47.26 1113.61 47.7333 1113.26 48.36C1112.93 48.9733 1112.76 49.6867 1112.76 50.5C1112.76 51.3267 1112.93 52.0533 1113.26 52.68C1113.61 53.2933 1114.06 53.7667 1114.62 54.1C1115.2 54.42 1115.82 54.58 1116.48 54.58C1117.16 54.58 1117.78 54.42 1118.34 54.1C1118.92 53.7667 1119.37 53.2933 1119.7 52.68C1120.04 52.0533 1120.2 51.32 1120.2 50.48ZM1133.9 45.04L1127.3 61.16H1125.42L1127.58 55.88L1123.16 45.04H1125.18L1128.62 53.92L1132.02 45.04H1133.9Z" fill="black"/>
<rect x="1152" y="22" width="188" height="55" fill="white"/>
<path d="M1187.88 42.06C1189.4 42.06 1190.71 42.3467 1191.82 42.92C1192.94 43.48 1193.79 44.2867 1194.38 45.34C1194.98 46.3933 1195.28 47.6333 1195.28 49.06C1195.28 50.4867 1194.98 51.7267 1194.38 52.78C1193.79 53.82 1192.94 54.62 1191.82 55.18C1190.71 55.7267 1189.4 56 1187.88 56H1183.54V42.06H1187.88ZM1187.88 54.5C1189.68 54.5 1191.05 54.0267 1192 53.08C1192.95 52.12 1193.42 50.78 1193.42 49.06C1193.42 47.3267 1192.94 45.9733 1191.98 45C1191.03 44.0267 1189.67 43.54 1187.88 43.54H1185.36V54.5H1187.88ZM1207.68 50.1C1207.68 50.4467 1207.66 50.8133 1207.62 51.2H1198.86C1198.93 52.28 1199.29 53.1267 1199.96 53.74C1200.64 54.34 1201.46 54.64 1202.42 54.64C1203.21 54.64 1203.86 54.46 1204.38 54.1C1204.91 53.7267 1205.29 53.2333 1205.5 52.62H1207.46C1207.17 53.6733 1206.58 54.5333 1205.7 55.2C1204.82 55.8533 1203.73 56.18 1202.42 56.18C1201.38 56.18 1200.45 55.9467 1199.62 55.48C1198.81 55.0133 1198.17 54.3533 1197.7 53.5C1197.23 52.6333 1197 51.6333 1197 50.5C1197 49.3667 1197.23 48.3733 1197.68 47.52C1198.13 46.6667 1198.77 46.0133 1199.58 45.56C1200.41 45.0933 1201.35 44.86 1202.42 44.86C1203.46 44.86 1204.38 45.0867 1205.18 45.54C1205.98 45.9933 1206.59 46.62 1207.02 47.42C1207.46 48.2067 1207.68 49.1 1207.68 50.1ZM1205.8 49.72C1205.8 49.0267 1205.65 48.4333 1205.34 47.94C1205.03 47.4333 1204.61 47.0533 1204.08 46.8C1203.56 46.5333 1202.98 46.4 1202.34 46.4C1201.42 46.4 1200.63 46.6933 1199.98 47.28C1199.34 47.8667 1198.97 48.68 1198.88 49.72H1205.8ZM1214.54 46.54H1212.24V56H1210.42V46.54H1209V45.04H1210.42V44.26C1210.42 43.0333 1210.74 42.14 1211.36 41.58C1212 41.0067 1213.02 40.72 1214.42 40.72V42.24C1213.62 42.24 1213.06 42.4 1212.72 42.72C1212.4 43.0267 1212.24 43.54 1212.24 44.26V45.04H1214.54V46.54ZM1215.99 50.48C1215.99 49.36 1216.21 48.38 1216.67 47.54C1217.12 46.6867 1217.74 46.0267 1218.53 45.56C1219.33 45.0933 1220.21 44.86 1221.19 44.86C1222.15 44.86 1222.98 45.0667 1223.69 45.48C1224.39 45.8933 1224.92 46.4133 1225.27 47.04V45.04H1227.11V56H1225.27V53.96C1224.91 54.6 1224.37 55.1333 1223.65 55.56C1222.94 55.9733 1222.11 56.18 1221.17 56.18C1220.19 56.18 1219.31 55.94 1218.53 55.46C1217.74 54.98 1217.12 54.3067 1216.67 53.44C1216.21 52.5733 1215.99 51.5867 1215.99 50.48ZM1225.27 50.5C1225.27 49.6733 1225.1 48.9533 1224.77 48.34C1224.43 47.7267 1223.98 47.26 1223.41 46.94C1222.85 46.6067 1222.23 46.44 1221.55 46.44C1220.87 46.44 1220.25 46.6 1219.69 46.92C1219.13 47.24 1218.68 47.7067 1218.35 48.32C1218.01 48.9333 1217.85 49.6533 1217.85 50.48C1217.85 51.32 1218.01 52.0533 1218.35 52.68C1218.68 53.2933 1219.13 53.7667 1219.69 54.1C1220.25 54.42 1220.87 54.58 1221.55 54.58C1222.23 54.58 1222.85 54.42 1223.41 54.1C1223.98 53.7667 1224.43 53.2933 1224.77 52.68C1225.1 52.0533 1225.27 51.3267 1225.27 50.5ZM1239.9 45.04V56H1238.08V54.38C1237.73 54.94 1237.25 55.38 1236.62 55.7C1236.01 56.0067 1235.33 56.16 1234.58 56.16C1233.73 56.16 1232.96 55.9867 1232.28 55.64C1231.6 55.28 1231.06 54.7467 1230.66 54.04C1230.27 53.3333 1230.08 52.4733 1230.08 51.46V45.04H1231.88V51.22C1231.88 52.3 1232.15 53.1333 1232.7 53.72C1233.25 54.2933 1233.99 54.58 1234.94 54.58C1235.91 54.58 1236.68 54.28 1237.24 53.68C1237.8 53.08 1238.08 52.2067 1238.08 51.06V45.04H1239.9ZM1244.79 41.2V56H1242.97V41.2H1244.79ZM1250.12 46.54V53C1250.12 53.5333 1250.23 53.9133 1250.46 54.14C1250.68 54.3533 1251.08 54.46 1251.64 54.46H1252.98V56H1251.34C1250.32 56 1249.56 55.7667 1249.06 55.3C1248.55 54.8333 1248.3 54.0667 1248.3 53V46.54H1246.88V45.04H1248.3V42.28H1250.12V45.04H1252.98V46.54H1250.12Z" fill="#9F9F9F"/>
</svg>
